# xmcd
#
# Track frame offsets:
#	150
#	12782
#	27200
#	41945
#	54045
#	67402
#	79227
#	91832
#	105297
#	118960
#	131745
#	143555
#	156487
#	170720
#	183950
#
# Disc length: 2623
#
# Revision: 1
# Processed by: cddbd v1.5.1PL0 Copyright (c) Steve Scherf et al.
# Submitted via: MAGIX_Freedb v0.9beta0
# Normalized: r0:DSETVAR1
#
DISCID=cb0a3d0f
DTITLE=Various Artist - The Best Of Soul and Rhythm and Blues
DYEAR=1996
DGENRE=
TTITLE0=Etta James - Something's Got a Hold On Me
TTITLE1=Bo Diddley - You Can't judge a Book By Looking At The Cover
TTITLE2=Billy Stewart - Sitting In The Park
TTITLE3=Little Milton - We're Gonna Make It
TTITLE4=Fontella Bass - Rescue Me
TTITLE5=Chuck Berry - Nadine
TTITLE6=Etta James - Security
TTITLE7=Etta James - At Last
TTITLE8=Billy Stewart - I Do Love You
TTITLE9=Etta James Duet With Harvey Fuqua - Spoonful
TTITLE10=Tony Clarke - The Entertainer
TTITLE11=Mitty Collier - I Had a Talk With My Man Last Night
TTITLE12=Little Milton - If Walls Could Talk
TTITLE13=Laura Lee - Dirty Old Man
TTITLE14=Sugar Pie Desanto - Soulful Dress
EXTD=cd1
EXTT0=
EXTT1=
EXTT2=
EXTT3=
EXTT4=
EXTT5=
EXTT6=
EXTT7=
EXTT8=
EXTT9=
EXTT10=
EXTT11=
EXTT12=
EXTT13=
EXTT14=
PLAYORDER=
